<?xml version="1.0" standalone="no"?>
<!DOCTYPE svg PUBLIC "-//W3C//DTD SVG 20010904//EN"
 "http://www.w3.org/TR/2001/REC-SVG-20010904/DTD/svg10.dtd">
<svg version="1.0" xmlns="http://www.w3.org/2000/svg"
 width="1920.000000pt" height="1920.000000pt" viewBox="0 0 1920.000000 1920.000000"
 preserveAspectRatio="xMidYMid meet">
<metadata>
Created by potrace 1.11, written by Peter Selinger 2001-2013
</metadata>
<g transform="translate(0.000000,1920.000000) scale(0.100000,-0.100000)"
fill="#000000" stroke="none">
<path d="M0 9600 l0 -9600 9600 0 9600 0 0 41 0 41 -6532 6540 c-3593 3597
-7889 7898 -9546 9559 l-3014 3019 -54 0 -54 0 0 -9600z m3616 4728 c18 -18
46 -62 64 -98 18 -36 41 -76 50 -90 17 -24 17 -30 4 -80 -16 -60 -13 -125 12
-221 8 -31 14 -61 14 -66 0 -6 -34 -27 -74 -47 -198 -97 -488 -319 -733 -559
l-91 -90 -11 39 c-23 82 -3 195 70 404 71 201 89 267 89 322 l0 47 51 -35 c28
-19 62 -37 75 -40 62 -16 118 29 230 182 54 75 86 110 112 122 28 13 40 27 51
59 13 37 13 48 -6 120 -12 43 -25 86 -29 96 -6 17 -1 16 42 -6 27 -14 63 -40
80 -59z m648 -247 c37 -82 46 -143 46 -300 0 -116 11 -264 22 -310 2 -7 -19
-21 -52 -33 -164 -63 -364 -225 -506 -413 -33 -44 -117 -165 -186 -270 -180
-272 -266 -384 -403 -521 -91 -91 -136 -128 -187 -155 -82 -41 -85 -39 -123
74 -70 209 -53 470 45 727 26 67 40 85 122 166 236 232 515 448 693 536 58 29
154 67 212 84 8 2 4 26 -16 81 -34 93 -64 222 -59 255 3 22 7 23 93 24 67 0
101 6 135 21 44 19 110 82 110 105 0 23 28 -14 54 -71z m-2972 -535 l51 -100
-7 -180 c-3 -100 -11 -245 -17 -324 -6 -79 -9 -145 -7 -148 2 -2 36 -6 74 -10
l70 -7 33 334 c18 184 35 337 39 340 4 3 51 22 104 43 113 44 154 69 184 114
l22 33 55 -113 c85 -174 117 -292 117 -426 l0 -77 -54 -68 c-253 -317 -369
-677 -321 -1002 60 -411 231 -992 424 -1443 167 -389 338 -669 543 -888 50
-53 90 -105 96 -125 6 -19 13 -88 15 -154 10 -213 48 -336 157 -496 34 -50 74
-117 89 -148 25 -53 26 -64 25 -201 -1 -124 -5 -159 -28 -244 -63 -232 -160
-387 -301 -478 -70 -46 -155 -72 -282 -89 -51 -6 -93 -15 -93 -20 0 -6 224
-189 315 -256 l30 -22 -432 -1 -432 0 -36 60 c-164 271 -319 789 -439 1470
-61 347 -124 804 -196 1405 -68 580 -95 758 -127 836 -12 31 -21 39 -57 48
-101 25 -183 180 -235 442 -30 155 -47 281 -81 624 -33 336 -52 461 -79 542
-18 53 -18 53 7 94 69 115 103 258 104 431 0 85 3 116 12 111 6 -4 56 -41 111
-82 127 -97 283 -247 332 -319 20 -32 40 -61 44 -66 10 -11 129 36 129 51 0 6
-33 87 -74 178 l-74 167 39 81 c21 45 46 113 56 151 20 81 17 83 95 -68z
m3566 -183 c3 -33 -1 -52 -22 -89 -23 -41 -26 -57 -26 -146 0 -66 -5 -108 -14
-126 -16 -30 -92 -105 -146 -145 -96 -69 -356 -195 -621 -299 -149 -58 -141
-48 -165 -191 -33 -201 -29 -561 12 -882 47 -377 152 -857 250 -1147 l33 -98
-27 7 c-15 5 -97 8 -182 8 -182 -1 -214 -8 -432 -97 -143 -59 -173 -77 -125
-78 12 -1 -30 -16 -93 -35 -156 -45 -299 -108 -327 -142 -47 -58 -23 -109 70
-147 l58 -23 -43 -7 c-70 -11 -164 -45 -206 -76 l-40 -29 -45 58 -45 58 9 209
c23 551 87 1180 176 1721 l36 221 53 21 c204 78 405 292 712 756 69 105 153
226 188 270 128 166 310 316 440 364 69 26 87 26 143 -1 63 -32 188 -32 246
-2 34 18 43 30 63 85 12 35 25 71 28 79 9 20 35 -42 42 -97z m-2707 -479 c90
-99 204 -109 293 -26 l28 27 -7 -50 c-14 -102 -92 -303 -141 -363 -16 -19 -37
-25 -129 -37 -60 -8 -124 -15 -141 -15 -18 0 -57 -11 -87 -25 -61 -28 -157
-45 -157 -27 0 19 52 155 82 217 57 114 205 325 227 325 4 0 18 -12 32 -26z
m4048 -1264 c89 -72 177 -138 194 -147 54 -29 132 -23 204 15 34 17 69 32 76
32 26 0 161 -95 257 -182 187 -168 485 -481 696 -729 l77 -90 -39 7 c-22 4
-58 7 -82 7 -51 0 -88 -30 -98 -80 -10 -48 30 -82 151 -128 183 -69 309 -124
392 -171 88 -50 193 -137 181 -150 -5 -4 -56 -2 -115 4 -245 27 -389 9 -477
-57 -64 -50 -92 -96 -156 -267 -16 -44 -45 -105 -63 -135 -46 -75 -318 -398
-413 -490 -157 -151 -341 -264 -494 -305 -79 -21 -234 -24 -310 -5 -79 19
-224 91 -300 149 -226 172 -737 789 -850 1025 l-28 58 20 67 c22 73 59 161 81
192 13 19 20 12 108 -112 161 -228 273 -324 353 -304 60 15 292 249 431 435
77 102 159 260 181 351 33 134 -2 250 -111 368 -96 103 -258 215 -305 210 -50
-6 -110 112 -110 216 0 94 14 123 81 166 33 21 91 51 129 66 40 15 88 44 117
70 26 24 51 43 54 44 3 0 79 -59 168 -130z m-2039 -1544 c209 -34 476 -139
707 -277 71 -43 89 -60 139 -132 234 -336 595 -748 774 -884 96 -73 253 -153
350 -179 100 -27 301 -25 404 4 268 77 506 257 783 593 60 72 127 154 151 182
46 56 114 188 156 302 52 142 91 172 229 182 74 5 378 -20 399 -33 4 -3 8 -33
8 -66 0 -61 -1 -63 -48 -107 -55 -53 -173 -116 -357 -192 -71 -29 -134 -56
-138 -59 -4 -4 2 -37 14 -74 20 -62 21 -74 11 -142 -21 -131 -98 -295 -245
-514 -63 -94 -220 -306 -285 -385 l-25 -30 7 90 c4 50 20 186 34 303 15 116
24 212 20 212 -4 0 -8 -5 -8 -11 0 -6 -69 -151 -154 -323 -207 -418 -338 -616
-555 -839 -118 -122 -216 -204 -346 -292 -91 -62 -313 -180 -322 -172 -2 2 9
30 23 63 38 85 154 384 154 396 0 5 -75 -63 -167 -152 -92 -89 -213 -199 -268
-243 -338 -272 -718 -439 -1107 -487 -105 -13 -452 -9 -501 7 -27 8 -24 11
108 122 74 63 135 118 135 123 0 4 -17 8 -37 8 -67 0 -365 20 -463 31 -282 31
-504 98 -723 221 l-78 43 36 10 c49 14 34 25 -34 25 -62 0 -54 -4 -209 108
l-104 75 53 28 c254 139 422 441 458 821 19 203 -11 308 -144 503 -75 110
-101 177 -120 304 -28 182 -17 234 62 285 73 47 144 61 304 60 l146 -2 17 34
c39 83 8 140 -112 201 l-82 42 83 26 c172 53 271 69 442 69 151 1 169 -1 323
-37 90 -21 166 -37 168 -34 2 2 -48 44 -113 93 -64 49 -124 94 -132 101 -23
18 69 17 179 -1z m4460 -1586 c414 -54 770 -325 1029 -782 18 -32 36 -58 40
-58 19 0 91 64 105 94 49 104 -20 224 -262 457 -126 121 -134 131 -102 125
118 -24 274 -94 375 -168 45 -34 73 -65 112 -129 265 -433 409 -898 373 -1204
l-10 -90 27 -23 c31 -26 89 -60 313 -187 176 -99 346 -209 537 -349 106 -78
153 -105 245 -142 380 -152 813 -397 1163 -657 258 -192 520 -442 667 -637
145 -193 195 -306 205 -465 10 -163 -37 -285 -157 -406 -166 -168 -389 -221
-615 -145 -269 91 -1136 594 -1870 1087 -247 165 -446 310 -488 355 -15 16
-57 69 -92 119 l-65 90 0 -130 1 -130 111 -160 c490 -707 898 -1137 1208
-1272 69 -30 78 -38 116 -95 106 -164 282 -248 712 -343 27 -6 28 -27 7 -151
-66 -381 -297 -806 -846 -1555 -104 -142 -210 -292 -237 -333 l-47 -74 -145
-77 c-309 -166 -368 -199 -447 -251 -88 -59 -200 -172 -210 -213 -3 -14 -11
-29 -17 -33 -17 -11 -172 -10 -343 4 -173 13 -210 7 -269 -44 -19 -17 -36 -29
-38 -27 -2 2 -6 42 -10 89 -9 127 -26 110 257 274 53 31 97 61 97 66 0 12 -63
120 -70 120 -8 0 -142 -73 -247 -134 -116 -68 -149 -70 -248 -16 -70 39 -81
42 -133 38 -43 -3 -81 -16 -151 -52 -51 -26 -95 -45 -98 -43 -2 3 10 40 26 83
83 214 220 297 651 395 74 17 138 34 142 38 9 8 -153 106 -216 133 -57 23
-153 23 -218 -2 -30 -11 -97 -47 -150 -79 l-96 -59 -28 39 c-51 73 -172 139
-322 175 -37 9 -73 18 -80 20 -20 6 59 114 132 181 33 31 90 70 125 86 56 27
76 30 155 31 108 1 151 -12 487 -144 239 -95 343 -125 391 -115 23 5 35 2 53
-15 32 -30 94 -40 174 -29 134 19 252 102 344 242 133 202 204 470 195 735 -5
160 -26 211 -122 299 -115 105 -292 190 -696 333 -709 251 -862 346 -1075 670
-141 216 -253 430 -526 1012 -223 477 -310 627 -382 665 -33 17 -277 32 -277
17 0 -5 32 -31 70 -58 44 -31 73 -60 79 -78 6 -16 35 -66 65 -112 l54 -84
-132 55 c-500 207 -885 300 -1551 373 -1240 137 -2305 342 -2789 537 -194 78
-257 127 -587 460 -213 214 -569 592 -569 603 0 3 67 21 149 41 l149 35 108
-68 c281 -175 536 -264 873 -302 74 -9 135 -17 137 -19 1 -1 -40 -38 -92 -81
-52 -44 -94 -84 -94 -90 0 -15 142 -61 267 -87 142 -29 438 -36 599 -15 341
45 676 173 972 372 67 46 122 81 122 79 0 -3 -12 -29 -27 -59 -15 -31 -24 -58
-21 -62 10 -9 223 51 319 90 131 52 253 116 370 194 131 86 213 154 351 290
l106 105 94 -60 c121 -78 226 -141 603 -363 688 -405 1073 -662 1392 -927 141
-119 305 -281 383 -380 54 -69 56 -71 125 -87 118 -28 373 -106 511 -156 277
-102 520 -218 719 -346 1040 -667 1768 -1113 2037 -1251 109 -56 116 -58 188
-57 84 1 130 17 185 66 87 76 101 174 47 335 -119 352 -297 545 -842 908 -573
382 -1176 697 -1760 921 -650 249 -942 513 -1349 1224 -71 123 -271 517 -363
715 -53 113 -121 191 -220 252 -32 19 -58 36 -58 39 0 7 133 4 210 -6z m-643
-3409 c76 -32 145 -61 153 -64 8 -3 -13 -6 -47 -6 -90 -1 -204 -19 -302 -47
-102 -29 -321 -116 -321 -127 0 -14 387 -194 599 -278 120 -47 296 -101 373
-114 36 -6 38 -9 121 -168 47 -89 102 -191 121 -226 20 -35 33 -67 29 -71 -4
-4 -60 -21 -123 -40 -184 -52 -562 -177 -734 -242 -287 -108 -463 -203 -504
-271 -16 -26 -21 -58 -25 -177 -4 -100 -12 -171 -27 -230 -26 -104 -23 -154
20 -300 52 -174 89 -259 129 -299 20 -20 113 -89 206 -154 94 -64 179 -124
190 -132 18 -15 17 -18 -40 -76 -75 -76 -248 -222 -380 -321 -364 -272 -808
-514 -1235 -673 -210 -78 -544 -166 -686 -181 l-59 -6 -84 101 c-46 56 -122
137 -168 181 -152 141 -265 208 -553 326 -203 84 -296 140 -395 239 -65 65
-91 99 -132 181 -70 136 -115 296 -138 492 l-6 52 46 0 c114 0 194 89 203 226
4 61 1 80 -21 127 -13 30 -42 74 -63 97 l-39 43 48 -6 c124 -17 255 -123 320
-258 45 -92 48 -150 15 -272 -16 -61 -22 -111 -22 -197 -1 -103 2 -120 23
-160 82 -154 212 -227 448 -250 331 -33 836 84 1156 267 88 51 101 70 119 171
32 187 -88 435 -339 702 -43 46 -108 107 -145 137 -81 64 -111 113 -139 223
-18 69 -21 104 -17 204 6 146 28 210 122 351 72 108 254 293 378 386 242 180
960 570 1373 744 138 59 386 153 407 154 3 1 68 -25 145 -58z m-4429 -2505
c29 -7 99 -30 156 -52 l103 -38 12 -111 c41 -378 170 -657 380 -825 90 -71
220 -140 436 -229 92 -39 203 -91 246 -117 103 -62 220 -163 309 -266 l72 -83
-119 -7 c-296 -16 -643 31 -919 125 -89 30 -105 39 -150 86 -90 97 -179 259
-247 456 -71 205 -88 329 -62 436 7 25 5 26 -67 38 -72 13 -154 44 -193 74
-20 15 -19 16 8 37 77 60 95 200 42 318 -36 81 -88 128 -152 138 l-48 8 40 12
c53 17 90 17 153 0z m6108 -177 c32 -5 80 -17 106 -25 44 -14 49 -19 92 -104
42 -81 216 -508 216 -529 0 -16 -117 22 -337 109 l-212 84 50 53 c90 95 127
212 95 297 -23 61 -46 78 -139 103 l-82 21 76 1 c41 1 102 -4 135 -10z m-6156
-507 c36 -16 73 -32 83 -36 11 -3 17 -16 17 -36 0 -48 38 -209 75 -319 39
-117 48 -109 -94 -86 -190 31 -244 75 -300 247 -31 93 -85 153 -158 174 -32 9
-71 14 -92 11 l-36 -6 37 33 c45 40 127 80 233 116 l80 27 45 -48 c28 -30 69
-59 110 -77z m280 -653 c25 -50 64 -121 87 -157 l42 -67 -32 -7 c-18 -4 -70
-10 -117 -13 -116 -10 -140 2 -255 121 -85 88 -90 97 -71 105 43 19 281 107
291 108 6 1 31 -40 55 -90z"/>
<path d="M6630 11226 c0 -2 18 -22 40 -44 52 -52 52 -79 -4 -190 -25 -49 -48
-105 -51 -125 -14 -75 50 -154 175 -217 108 -55 371 -123 391 -103 13 13 -34
171 -77 262 -86 183 -226 321 -402 395 -62 26 -72 29 -72 22z"/>
<path d="M9720 19034 c0 -4 14 -59 31 -123 36 -133 35 -190 -2 -246 -31 -46
-125 -110 -194 -131 -51 -16 -54 -16 -98 5 -30 15 -88 67 -177 161 -148 157
-202 192 -356 230 -84 21 -284 41 -284 28 0 -4 28 -49 61 -100 65 -98 129
-222 129 -249 0 -8 -12 -22 -27 -30 -15 -8 -70 -49 -122 -91 -102 -83 -144
-108 -184 -108 -14 0 -67 28 -118 62 -110 72 -178 98 -253 98 -103 0 -154 -29
-356 -202 -24 -21 -42 -40 -39 -42 2 -2 76 3 164 11 184 18 205 14 232 -43 17
-34 17 -39 -6 -122 -67 -249 -81 -307 -100 -419 -35 -208 -46 -416 -32 -634
26 -436 55 -553 289 -1189 107 -291 188 -537 247 -752 44 -157 125 -496 125
-521 0 -12 -441 147 -890 319 -670 258 -1045 489 -1240 765 -79 113 -108 177
-99 219 4 19 6 37 4 41 -2 3 30 39 72 80 41 41 93 99 114 130 31 47 62 73 168
143 233 155 291 243 291 440 0 107 -17 194 -58 300 -53 135 -105 211 -234 339
-66 64 -124 117 -129 117 -13 0 1 -166 33 -377 11 -78 11 -84 -7 -98 -33 -25
-143 -55 -275 -76 l-125 -19 -25 32 c-216 276 -514 466 -835 532 -88 18 -331
49 -346 44 -6 -2 67 -67 162 -145 193 -156 224 -186 216 -206 -3 -7 -44 -73
-92 -145 l-87 -132 -52 7 c-93 14 -334 6 -454 -15 -119 -21 -522 -123 -522
-132 0 -3 71 -17 158 -32 218 -38 278 -58 342 -115 95 -85 136 -207 127 -381
l-5 -102 29 -17 c40 -24 36 -33 -13 -33 -68 0 -313 -30 -478 -59 -263 -46
-622 -125 -603 -133 10 -4 129 -16 265 -27 166 -15 277 -29 340 -45 249 -63
371 -179 353 -334 l-5 -47 85 -59 c103 -71 210 -163 450 -386 238 -221 245
-227 354 -303 93 -66 178 -102 297 -127 50 -11 56 -16 170 -148 148 -171 621
-646 814 -817 524 -464 1001 -829 1590 -1220 298 -197 484 -311 613 -376 l82
-42 100 12 c55 7 109 14 121 16 14 3 36 -12 75 -51 108 -111 250 -189 479
-264 318 -105 694 -168 1660 -280 289 -33 597 -70 685 -81 537 -68 1018 -208
1460 -424 150 -74 422 -228 449 -255 7 -7 -29 -10 -104 -10 -148 0 -327 -16
-410 -36 -207 -51 -371 -184 -474 -384 -83 -162 -123 -308 -150 -559 -18 -160
-30 -200 -73 -250 -54 -64 -101 -76 -283 -75 -186 0 -271 17 -387 74 -111 55
-221 139 -323 246 -106 112 -150 190 -150 266 0 76 34 137 135 248 192 207
200 224 200 390 0 148 -20 243 -71 351 -81 169 -190 246 -371 262 -66 7 -73 5
-83 -13 -22 -41 -22 -115 -1 -224 25 -129 26 -145 5 -174 -12 -18 -25 -22 -70
-22 -96 0 -147 34 -364 245 -80 77 -167 156 -193 174 -97 66 -229 93 -355 72
-74 -12 -232 -61 -232 -71 0 -4 79 -57 176 -116 l175 -109 -5 -49 c-3 -27 -16
-70 -28 -95 l-23 -46 -65 -3 c-39 -2 -111 6 -180 19 -166 33 -338 33 -439 0
-108 -36 -201 -101 -318 -226 -57 -60 -101 -110 -99 -112 2 -2 61 4 132 13
144 18 247 15 312 -11 48 -20 45 -2 47 -215 1 -113 6 -169 18 -205 9 -27 17
-51 17 -51 0 -1 -55 0 -122 3 -116 5 -125 4 -150 -17 -50 -39 -34 -110 28
-130 46 -16 103 -66 120 -107 8 -18 14 -53 14 -79 0 -56 40 -137 106 -212 83
-94 243 -182 385 -211 50 -11 60 -17 90 -59 51 -73 302 -318 424 -416 601
-478 1528 -881 2365 -1025 253 -44 379 -55 635 -55 l250 -1 7 200 c14 442 86
682 254 848 64 63 138 112 222 146 69 28 191 65 197 59 2 -2 10 -57 19 -123
42 -314 112 -538 222 -708 110 -170 414 -443 1069 -962 306 -243 479 -400 522
-473 51 -87 65 -160 70 -372 6 -222 -4 -315 -41 -397 -26 -58 -185 -302 -197
-303 -9 0 -42 80 -100 243 -66 183 -112 271 -158 303 -42 28 -166 78 -263 105
-174 49 -387 63 -518 35 -58 -13 -336 -134 -327 -143 3 -2 87 -15 188 -28 101
-13 205 -30 232 -36 l47 -11 0 -67 c0 -85 -16 -173 -42 -230 -11 -24 -25 -70
-31 -102 l-11 -59 -71 0 c-232 0 -480 -99 -612 -243 -45 -51 -128 -185 -119
-194 2 -3 55 0 118 7 219 22 418 -23 472 -105 10 -15 20 -50 23 -78 5 -50 3
-54 -47 -122 -29 -38 -67 -99 -85 -135 -34 -68 -119 -300 -109 -300 3 0 49 25
102 57 124 72 182 80 268 38 68 -33 173 -130 260 -240 71 -89 117 -122 188
-131 38 -6 46 -10 41 -23 -4 -9 -14 -52 -22 -96 -25 -128 -13 -283 37 -490 68
-286 57 -279 100 -62 41 205 66 268 120 305 58 39 103 45 255 36 240 -15 323
-12 377 15 72 34 94 67 102 148 9 96 43 163 101 203 58 40 180 97 359 169
l138 56 74 130 c222 389 392 803 423 1030 46 339 92 798 111 1105 15 242 30
804 22 811 -4 4 -51 12 -104 19 -270 33 -453 118 -566 264 -110 142 -160 311
-222 741 -22 154 -51 323 -64 375 -14 52 -23 96 -22 98 2 1 29 -19 60 -45 124
-107 303 -201 462 -245 114 -31 364 -31 477 0 230 63 375 207 436 432 46 172
52 420 15 640 -46 274 -193 654 -456 1180 -254 509 -503 938 -932 1604 -326
504 -509 865 -600 1179 -76 261 -90 458 -49 690 11 64 19 87 30 87 9 0 62 15
118 34 251 84 519 256 759 487 202 194 352 391 451 594 79 160 100 243 99 390
0 318 -133 630 -355 839 -79 74 -96 97 -124 160 -90 206 -304 440 -560 611
-151 102 -205 124 -318 132 l-91 6 18 -29 c21 -32 67 -93 169 -225 127 -165
183 -301 165 -399 -11 -62 -93 -224 -177 -352 -38 -59 -153 -219 -254 -355
-209 -282 -238 -324 -330 -480 -178 -301 -303 -610 -359 -886 -19 -94 -23
-143 -22 -307 0 -343 56 -570 296 -1218 154 -418 240 -591 590 -1196 179 -308
529 -891 638 -1060 258 -402 511 -870 638 -1177 137 -335 177 -597 102 -677
-51 -54 -231 -56 -390 -3 -247 83 -366 203 -659 671 -288 458 -411 607 -598
727 -33 22 -75 45 -92 52 -21 9 -43 35 -72 84 -82 140 -310 476 -443 655 -277
369 -509 636 -861 987 -395 396 -773 716 -1155 980 -47 32 -87 60 -89 61 -2 2
28 43 66 91 38 48 84 108 102 133 l33 45 -6 -90 c-4 -49 -9 -108 -12 -130 l-5
-40 57 60 c223 237 532 650 687 921 67 116 161 317 191 409 31 94 56 220 56
279 l0 41 133 22 c345 57 560 169 634 330 73 157 19 343 -142 498 -59 57 -136
105 -359 225 l-78 43 31 13 c21 9 37 26 47 50 14 33 13 39 -5 77 -37 75 -354
419 -604 656 -334 315 -587 496 -744 532 -47 11 -52 10 -92 -17 -37 -24 -54
-28 -115 -29 -102 -1 -120 10 -311 179 -190 169 -282 226 -366 226 -44 0 -47
-2 -61 -38 -18 -45 -95 -100 -178 -127 -30 -9 -101 -39 -156 -66 -251 -122
-282 -219 -182 -566 10 -35 9 -59 -10 -156 -11 -63 -19 -123 -16 -133 3 -11
-4 -62 -15 -114 -11 -52 -18 -96 -16 -98 1 -2 33 35 70 82 37 47 71 83 75 81
4 -3 36 31 70 75 35 44 65 80 67 80 3 0 43 -21 90 -47 159 -88 227 -172 258
-318 36 -173 4 -271 -148 -453 -49 -59 -96 -117 -104 -130 -15 -22 -16 -22
-55 35 -48 69 -94 124 -293 348 -288 324 -393 456 -508 630 -197 301 -274 575
-222 790 23 96 25 92 -62 99 -149 13 -312 -35 -367 -107 -52 -68 -76 -245 -56
-412 44 -370 256 -817 555 -1174 l88 -104 -17 -26 c-58 -88 -136 -311 -136
-388 0 -19 -4 -23 -17 -19 -207 62 -356 90 -566 107 -146 12 -400 6 -470 -10
-88 -21 -112 -88 -54 -146 l34 -34 -51 -5 c-28 -3 -91 -8 -141 -11 -110 -7
-229 -27 -355 -59 -113 -30 -92 -42 -237 138 -244 306 -408 603 -480 866 -22
80 -26 116 -27 235 0 187 1 189 101 204 43 6 146 18 228 26 207 20 230 24 315
46 125 34 203 81 310 188 107 108 164 198 213 339 27 76 31 104 35 219 2 73 2
140 -2 148 -4 12 -32 -12 -103 -90 -111 -120 -197 -192 -265 -226 -46 -22 -49
-22 -83 -6 -20 10 -40 29 -46 44 -16 41 -4 177 30 346 45 218 48 261 23 343
-29 94 -108 211 -217 319 -101 101 -215 201 -215 189z m-712 -293 c43 -22 83
-57 162 -143 57 -62 121 -127 142 -145 l38 -31 -100 -89 c-90 -79 -210 -212
-210 -233 0 -4 -21 -13 -47 -20 -134 -33 -336 -137 -493 -253 -102 -76 -264
-233 -319 -309 -19 -27 -36 -46 -38 -45 -6 6 26 229 47 333 11 54 37 152 56
218 45 148 52 209 31 269 l-15 45 73 -47 c156 -102 236 -88 440 78 72 59 110
83 137 88 29 4 43 14 58 38 32 52 24 126 -24 238 -20 45 -13 46 62 8z m943
-148 c47 -68 72 -140 65 -188 -3 -22 -18 -105 -33 -184 -35 -181 -35 -181
-193 -181 -155 0 -269 -35 -410 -125 -261 -168 -568 -555 -999 -1257 -56 -92
-110 -177 -120 -189 -17 -21 -18 -20 -38 52 -34 117 -51 213 -68 378 -24 246
-23 263 30 355 181 317 497 570 850 681 97 30 101 32 124 76 34 63 337 359
368 359 42 0 181 60 243 105 58 43 129 127 130 153 0 24 20 11 51 -35z m3359
-771 c174 -153 280 -231 330 -245 71 -21 206 -14 269 13 l52 23 83 -42 c154
-78 349 -237 635 -516 185 -181 435 -444 428 -451 -1 -2 -31 4 -65 14 l-62 16
-55 -27 c-44 -22 -55 -32 -55 -51 0 -83 46 -120 340 -275 74 -39 137 -74 142
-79 4 -4 -95 -7 -220 -7 l-227 0 -67 -33 c-44 -22 -84 -51 -120 -91 -56 -61
-57 -63 -141 -242 -141 -302 -479 -824 -616 -952 -118 -111 -224 -152 -381
-151 -132 1 -226 26 -375 97 -252 122 -440 262 -873 650 -117 106 -246 214
-285 241 -65 43 -75 55 -104 117 l-32 70 19 75 c22 84 49 151 80 194 l21 29
107 -92 c205 -177 283 -225 420 -256 171 -40 238 -6 346 176 27 44 82 120 123
169 166 196 217 307 216 474 -1 246 -98 407 -325 543 -92 56 -121 79 -148 119
-19 27 -37 51 -41 54 -4 2 -17 -13 -29 -34 l-23 -37 -17 40 c-28 65 -53 175
-54 239 -1 56 1 60 37 91 45 39 133 83 256 129 78 29 208 107 226 136 9 15 67
-25 185 -128z m-3370 50 c0 -42 24 -116 50 -153 14 -19 48 -43 87 -62 84 -39
145 -34 238 17 36 20 65 32 65 27 0 -22 -105 -164 -150 -203 -125 -110 -210
-137 -517 -168 -200 -20 -400 -52 -414 -67 -27 -31 -59 -199 -59 -314 0 -339
215 -803 569 -1230 l76 -93 -145 -72 c-174 -86 -303 -171 -485 -319 l-135
-110 187 -8 c104 -4 203 -10 222 -13 l34 -6 -72 -39 c-237 -129 -401 -302
-492 -519 -12 -30 -23 -56 -25 -58 -1 -2 -35 11 -76 28 l-75 31 -27 132 c-83
406 -188 760 -377 1281 -60 164 -109 303 -109 308 0 6 15 31 34 57 18 25 93
143 166 261 526 854 827 1199 1124 1289 53 16 92 21 172 19 57 -1 107 2 111 5
14 14 23 6 23 -21z m7433 -619 c149 -151 232 -279 267 -419 23 -91 25 -161 6
-304 -35 -259 -119 -479 -269 -706 -39 -60 -75 -114 -80 -121 -9 -14 83 -43
140 -43 113 0 213 144 304 438 33 105 88 327 109 435 8 37 17 67 21 67 10 0
53 -68 92 -146 74 -147 125 -375 113 -508 -29 -327 -408 -816 -856 -1105 -171
-111 -338 -182 -492 -211 l-68 -12 -11 -42 c-116 -429 -54 -834 211 -1384 120
-248 195 -375 557 -942 682 -1069 1152 -2026 1237 -2521 23 -133 30 -321 16
-434 -37 -309 -161 -445 -442 -486 -387 -56 -790 188 -1082 655 -64 104 -638
928 -642 923 -4 -4 451 -892 511 -997 129 -227 221 -517 265 -835 55 -403 86
-553 145 -688 54 -125 94 -186 185 -277 67 -68 104 -95 175 -132 100 -51 213
-89 323 -108 l72 -13 0 -121 c0 -154 -16 -483 -35 -746 -14 -185 -30 -338 -80
-775 -9 -77 -29 -190 -45 -251 -51 -198 -177 -488 -341 -783 l-81 -146 -112
-44 c-176 -68 -349 -156 -403 -205 -63 -57 -100 -126 -121 -228 -16 -76 -19
-82 -47 -90 -18 -5 -93 -4 -186 3 -207 16 -310 9 -385 -25 -32 -15 -66 -34
-76 -43 -17 -15 -18 -14 -18 16 0 56 31 183 59 246 75 162 224 290 441 375 55
21 300 158 300 166 0 12 -337 -8 -389 -23 -122 -33 -259 -124 -414 -272 -56
-54 -112 -102 -125 -105 -26 -9 -56 18 -157 143 -110 136 -261 237 -371 248
-50 5 -53 7 -42 27 21 40 113 129 163 157 47 27 57 29 165 29 143 0 603 -49
805 -85 18 -3 26 -2 20 4 -20 19 -462 213 -530 232 -90 26 -268 36 -350 19
-33 -7 -83 -15 -110 -17 l-51 -5 -24 52 c-29 63 -94 124 -165 156 -58 27 -170
54 -223 54 -48 0 -32 17 52 55 125 57 192 70 371 69 184 -1 283 -18 505 -89
74 -24 163 -49 198 -55 83 -17 201 -8 279 21 51 19 65 29 84 63 13 23 73 115
135 206 197 292 199 298 199 645 0 241 -2 266 -23 345 -58 211 -133 289 -722
756 -590 466 -871 725 -963 884 -75 129 -134 330 -166 561 -25 182 -38 401
-51 854 -6 198 -15 412 -21 475 -19 222 -61 406 -117 517 -23 44 -160 274
-169 283 -16 15 12 -415 33 -520 7 -34 6 -33 -87 51 -576 519 -1312 871 -2144
1023 -184 34 -184 34 -890 116 -1053 122 -1434 186 -1745 290 -143 48 -346
149 -303 150 7 0 90 11 185 24 95 14 301 41 458 61 157 20 294 40 305 44 29
12 -63 18 -530 37 -403 17 -628 15 -807 -7 l-97 -11 -118 67 c-264 152 -621
385 -963 630 -795 570 -1490 1190 -1988 1774 l-80 94 -118 29 c-65 16 -134 39
-155 51 -123 75 -180 121 -399 326 -195 183 -314 288 -406 360 -81 62 -82 63
-88 115 -15 116 -88 220 -208 296 -73 46 -75 45 117 61 167 14 362 7 424 -15
24 -9 47 -14 51 -11 18 11 72 117 64 125 -5 5 -52 32 -104 61 -52 28 -125 69
-163 90 l-67 40 0 77 c-1 156 -55 310 -144 409 l-46 51 87 7 c103 9 303 1 354
-15 27 -8 51 -29 101 -93 123 -156 183 -257 212 -358 13 -44 63 -393 67 -459
3 -62 99 331 99 405 0 122 -132 402 -289 612 l-24 32 72 110 c86 132 95 156
88 227 -3 30 -3 54 0 54 16 0 179 -90 243 -134 84 -57 244 -210 283 -271 l27
-41 -16 -84 c-13 -66 -15 -125 -11 -265 7 -270 52 -467 157 -680 164 -336 404
-548 885 -785 241 -119 431 -196 927 -379 463 -171 582 -218 842 -333 180 -80
450 -227 606 -331 277 -185 433 -397 470 -640 31 -203 -62 -390 -233 -471 -53
-25 -167 -50 -279 -62 -32 -3 -58 -9 -58 -14 0 -14 137 -137 182 -164 146 -85
455 -138 888 -152 l204 -7 -87 -82 c-48 -45 -87 -86 -87 -91 0 -23 92 -75 164
-94 118 -30 339 -43 509 -31 431 32 797 151 1109 362 48 32 88 57 88 54 0 -4
-7 -20 -16 -36 -8 -17 -13 -34 -9 -37 3 -3 47 -6 98 -6 77 -1 102 3 154 25
234 99 525 324 924 717 119 116 219 212 223 212 11 0 149 -94 276 -188 669
-495 1331 -1161 1850 -1862 110 -149 323 -467 404 -601 57 -97 57 -97 144
-143 198 -106 313 -238 589 -676 312 -497 425 -622 657 -731 142 -66 221 -84
382 -84 136 0 142 1 199 30 250 128 196 535 -165 1250 -141 277 -259 485 -475
830 -424 679 -836 1388 -1019 1753 -82 164 -215 501 -332 846 -105 310 -164
601 -164 814 0 258 84 561 246 883 120 242 203 370 451 703 303 405 420 606
454 776 13 69 -4 168 -46 258 -14 30 -25 56 -25 59 0 10 80 -60 163 -144z
m-10495 -256 c53 -147 61 -294 18 -374 -23 -44 -81 -95 -206 -178 -131 -88
-165 -117 -187 -160 -17 -32 -141 -165 -154 -165 -13 0 -57 157 -68 243 -14
103 -14 271 1 359 13 82 13 81 138 98 269 36 420 118 420 230 0 16 2 30 4 30
2 0 18 -38 34 -83z m8749 -994 c18 -20 42 -56 54 -80 113 -234 -125 -399 -658
-456 -68 -7 -126 -16 -129 -20 -4 -3 -1 -36 6 -72 38 -202 -75 -505 -337 -905
-97 -147 -293 -414 -299 -407 -2 2 5 185 16 407 12 222 19 407 18 412 -2 6
-39 -118 -82 -274 -119 -426 -146 -495 -263 -673 -89 -135 -189 -249 -437
-497 -235 -236 -439 -418 -604 -541 -92 -68 -247 -167 -262 -167 -4 0 55 140
132 311 76 172 137 314 135 316 -2 2 -83 -88 -179 -199 -193 -223 -307 -337
-419 -421 -304 -224 -649 -349 -1075 -388 -127 -11 -373 -6 -413 9 -16 6 4 28
130 146 82 76 149 141 149 145 0 3 -181 6 -402 6 -264 0 -441 4 -513 13 -134
15 -333 50 -352 61 -10 5 4 19 53 47 224 131 323 417 244 704 -91 329 -355
586 -882 860 l-146 76 28 66 c62 147 182 291 320 383 39 26 119 69 178 95 128
58 162 85 162 129 0 89 -58 130 -235 166 -29 6 -29 7 40 51 116 75 336 179
460 219 218 70 322 86 575 91 124 3 240 7 259 10 90 14 109 120 33 182 -13 10
9 12 114 12 291 0 585 -61 799 -167 116 -57 167 -95 404 -307 508 -453 766
-629 1062 -726 214 -70 403 -62 575 25 162 82 262 192 499 550 142 215 217
346 322 562 46 95 95 186 109 202 28 34 81 69 122 81 15 4 169 6 342 3 l315
-5 32 -35z m-4619 -4978 c25 -19 107 -96 184 -171 l140 -137 -51 -113 c-146
-325 -197 -597 -147 -784 25 -95 124 -288 216 -420 285 -412 344 -512 400
-678 27 -82 56 -239 49 -261 -9 -24 -426 245 -619 398 -113 89 -357 332 -420
418 -45 60 -46 61 -113 72 -126 21 -261 86 -328 158 -51 54 -79 105 -79 143 0
33 -15 95 -35 144 -8 18 -4 19 93 12 l101 -7 20 68 c20 64 20 69 4 78 -10 6
-34 27 -55 47 -48 49 -58 99 -58 292 0 113 -4 167 -16 203 l-16 50 -100 33
c-92 31 -98 35 -76 46 78 41 227 42 428 4 154 -30 260 -26 318 13 73 48 119
155 137 323 l7 61 -51 32 c-28 17 -51 33 -51 36 0 11 77 -28 118 -60z m898
-37 c95 -64 152 -201 161 -385 6 -107 5 -113 -20 -156 -15 -25 -67 -88 -117
-141 -149 -158 -200 -255 -200 -377 0 -112 64 -232 202 -375 140 -146 309
-260 463 -312 196 -66 507 -67 634 -2 133 67 187 169 211 393 34 329 113 548
244 681 152 154 319 194 759 182 l229 -6 101 -84 c56 -47 124 -105 151 -129
l49 -43 -104 17 c-113 20 -479 42 -599 37 l-75 -3 0 -52 c1 -46 5 -57 35 -89
98 -101 689 -457 896 -540 l72 -29 6 -210 c4 -115 9 -231 12 -256 l5 -46 -65
-17 c-355 -89 -569 -285 -674 -616 -40 -127 -60 -251 -74 -459 l-12 -174 -175
6 c-579 20 -1289 203 -1916 496 l-150 69 -3 54 c-14 300 -101 520 -338 858
-242 343 -312 468 -340 602 -32 153 22 398 147 669 l42 88 31 -16 c18 -10 65
-18 113 -21 74 -4 88 -2 135 21 61 30 92 71 107 139 10 45 7 88 -15 221 -8 48
6 49 72 5z m4189 -4903 c177 -45 254 -83 283 -142 11 -21 45 -110 77 -198 31
-88 74 -192 95 -232 37 -70 38 -71 17 -77 -12 -3 -53 -6 -92 -6 -70 0 -128 13
-306 68 -52 17 -133 37 -180 46 -46 9 -94 19 -106 22 -31 6 -30 38 2 114 47
113 70 352 40 423 -7 16 -3 17 36 11 24 -4 85 -17 134 -29z"/>
<path d="M13800 17372 c0 -5 9 -17 21 -28 26 -23 59 -86 59 -112 0 -10 -19
-56 -41 -103 -53 -109 -63 -191 -29 -239 61 -85 335 -195 540 -217 71 -7 71
-8 40 111 -72 274 -268 487 -529 577 -63 22 -61 22 -61 11z"/>
</g>
</svg>
